<svg width="7" height="8" viewBox="0 0 7 8" fill="none" xmlns="http://www.w3.org/2000/svg">
<g clip-path="url(#clip0_201_17137)">
<path d="M3.61667 6.52249C2.39214 6.52249 1.39531 5.52565 1.39531 4.30112C1.39531 3.07659 2.39214 2.07976 3.61667 2.07976C4.8412 2.07976 5.83804 3.07659 5.83804 4.30112C5.83804 5.52565 4.8412 6.52249 3.61667 6.52249ZM3.61667 1.52441C2.08115 1.52441 0.839966 2.7656 0.839966 4.30112C0.839966 5.83664 2.08115 7.07783 3.61667 7.07783C5.15219 7.07783 6.39338 5.83664 6.39338 4.30112C6.39338 2.7656 5.15219 1.52441 3.61667 1.52441ZM4.33584 3.19044L3.61667 3.90961L2.89751 3.19044L2.50599 3.58195L3.22516 4.30112L2.50599 5.02029L2.89751 5.4118L3.61667 4.69264L4.33584 5.4118L4.72736 5.02029L4.00819 4.30112L4.72736 3.58195L4.33584 3.19044Z" fill="black"/>
</g>
<defs>
<clipPath id="clip0_201_17137">
<rect width="6.6641" height="6.6641" fill="white" transform="translate(0.284668 0.96875)"/>
</clipPath>
</defs>
</svg>
